<svg xmlns="http://www.w3.org/2000/svg">


 <symbol>
    <svg id="features-infinity" viewBox="0 0 40 40" fill="none" xmlns="http://www.w3.org/2000/svg">
    <g clip-path="url(#clip0_8_774)">
    <path d="M20 40C31.0457 40 40 31.0457 40 20C40 8.9543 31.0457 0 20 0C8.9543 0 0 8.9543 0 20C0 31.0457 8.9543 40 20 40Z" fill="#F3F4F7"/>
    <path d="M25.4615 14.7573C23.7065 14.6673 22.1465 15.4173 21.1265 16.6548C21.1265 16.6548 19.979 18.1398 19.979 18.1323C19.979 18.1323 18.5315 20.0298 18.539 20.0298L17.294 21.6648L17.1965 21.7923C16.484 22.7448 15.224 23.2773 13.8965 22.8873C13.3996 22.7372 12.9512 22.4584 12.5969 22.079C12.2426 21.6996 11.9949 21.2333 11.879 20.7273C11.7756 20.289 11.7726 19.8331 11.8702 19.3935C11.9678 18.9539 12.1634 18.542 12.4425 18.1886C12.7216 17.8352 13.0769 17.5495 13.482 17.3527C13.887 17.156 14.3312 17.0533 14.7815 17.0523C15.689 17.0523 16.364 17.4348 16.829 17.8398C17.324 18.2748 18.0815 18.2073 18.4865 17.6823C18.839 17.2248 18.794 16.5648 18.374 16.1748C16.004 13.9998 11.519 14.4948 10.0865 17.5173C8.22657 21.4398 11.0615 25.3098 14.7815 25.3098C16.4165 25.3098 17.879 24.5823 18.8465 23.4123L19.169 22.9923C19.169 22.9923 19.9865 21.9198 19.9865 21.9273C19.9865 21.9273 21.434 20.0298 21.4265 20.0298L22.694 18.3723L22.784 18.2598C23.4365 17.3748 24.5615 16.8723 25.799 17.1123C26.894 17.3298 27.8015 18.1848 28.0715 19.2723C28.5665 21.2448 27.0815 23.0223 25.184 23.0223C24.2915 23.0223 23.6165 22.6398 23.1515 22.2273C23.0341 22.1243 22.8968 22.0466 22.7481 21.9989C22.5993 21.9512 22.4424 21.9345 22.287 21.95C22.1316 21.9655 21.981 22.0127 21.8446 22.0888C21.7082 22.1649 21.5889 22.2682 21.494 22.3923C21.1265 22.8723 21.194 23.5398 21.644 23.9448C22.3415 24.5673 23.534 25.3248 25.184 25.3248C28.334 25.3248 30.8465 22.5573 30.419 19.3248C30.089 16.8348 27.959 14.8848 25.4615 14.7573Z" fill="#259DD6"/>
    </g>
    <defs>
    <clipPath id="clip0_8_774">
    <rect width="40" height="40" fill="white"/>
    </clipPath>
    </defs>
    </svg>
 </symbol>
<symbol>
  <svg id="logo-icon" viewBox="0 0 41 36" fill="none" xmlns="http://www.w3.org/2000/svg">
    <g clip-path="url(#clip0_116646_217)">
      <path d="M21.1577 0L20.377 0.8325V17.619H39.4932L40.4397 16.9335L24.3813 14.0985L21.1577 0ZM0.948125 18.39L0 19.0755L16.0566 21.9L19.2785 36L20.0592 35.1675V18.39H0.948125Z" fill="white"/>
    </g>
    <defs>
      <clipPath id="clip0_116646_217">
        <rect width="41" height="36" fill="white"/>
      </clipPath>
    </defs>
  </svg>
</symbol>
<symbol>
  <svg id="human-icon" width="13" height="14" viewBox="0 0 13 14" fill="none" xmlns="http://www.w3.org/2000/svg">
  <path d="M11.3206 13.2502V11.8613C11.3206 11.1246 11.0421 10.418 10.5466 9.89709C10.051 9.37615 9.3788 9.0835 8.67793 9.0835H3.39264C2.69177 9.0835 2.0196 9.37615 1.52401 9.89709C1.02842 10.418 0.75 11.1246 0.75 11.8613V13.2502" fill="#F9F9F9"/>
  <path d="M11.3206 13.2502V11.8613C11.3206 11.1246 11.0421 10.418 10.5466 9.89709C10.051 9.37615 9.3788 9.0835 8.67793 9.0835H3.39264C2.69177 9.0835 2.0196 9.37615 1.52401 9.89709C1.02842 10.418 0.75 11.1246 0.75 11.8613V13.2502" stroke="#66A5AD" stroke-width="1.5" stroke-linecap="round" stroke-linejoin="round"/>
  <path d="M6.03522 6.30556C7.49471 6.30556 8.67787 5.0619 8.67787 3.52778C8.67787 1.99365 7.49471 0.75 6.03522 0.75C4.57573 0.75 3.39258 1.99365 3.39258 3.52778C3.39258 5.0619 4.57573 6.30556 6.03522 6.30556Z" fill="#F9F9F9" stroke="#66A5AD" stroke-width="1.5" stroke-linecap="round" stroke-linejoin="round"/>
  </svg>
</symbol>
<symbol>
  <svg id="basket-icon" width="17" height="17" viewBox="0 0 17 17" fill="none" xmlns="http://www.w3.org/2000/svg">
  <path d="M5.41732 15.4167C6.1537 15.4167 6.75065 14.8197 6.75065 14.0833C6.75065 13.347 6.1537 12.75 5.41732 12.75C4.68094 12.75 4.08398 13.347 4.08398 14.0833C4.08398 14.8197 4.68094 15.4167 5.41732 15.4167Z" stroke="#66A5AD" stroke-width="1.5" stroke-linecap="round" stroke-linejoin="round"/>
  <path d="M13.4173 15.4167C14.1537 15.4167 14.7507 14.8197 14.7507 14.0833C14.7507 13.347 14.1537 12.75 13.4173 12.75C12.6809 12.75 12.084 13.347 12.084 14.0833C12.084 14.8197 12.6809 15.4167 13.4173 15.4167Z" stroke="#66A5AD" stroke-width="1.5" stroke-linecap="round" stroke-linejoin="round"/>
  <path d="M3.86333 4.08333H15.4167L14.2967 9.67667C14.2357 9.9836 14.0687 10.2593 13.825 10.4555C13.5812 10.6518 13.2762 10.756 12.9633 10.75H5.91667C5.59112 10.7528 5.27582 10.6363 5.0302 10.4226C4.78459 10.209 4.62564 9.91279 4.58333 9.59L3.57 1.91C3.52798 1.58949 3.37095 1.29516 3.12813 1.08178C2.88532 0.868395 2.57325 0.750489 2.25 0.75H0.75" stroke="#66A5AD" stroke-width="1.5" stroke-linecap="round" stroke-linejoin="round"/>
  </svg>

</symbol>
<symbol>
 <svg id="instagram-icon" width="22" height="22" viewBox="0 0 22 22" fill="none" xmlns="http://www.w3.org/2000/svg">
<path fill-rule="evenodd" clip-rule="evenodd" d="M10.5372 0C11.9459 0.0499646 13.4048 0.0499646 14.8135 0.0999226C16.0713 0.149881 17.2284 0.349724 18.3352 0.999205C19.7439 1.84853 20.5992 3.09754 20.9011 4.69627C21.052 5.64551 21.1023 6.64471 21.1526 7.59397C21.2029 9.69229 21.1526 11.7906 21.1526 13.8889C21.1526 14.9881 21.1023 16.0872 20.7501 17.1364C20.0458 19.1847 18.5868 20.4337 16.4738 20.8334C15.5179 21.0333 14.5117 21.0333 13.5558 21.0832C11.4428 21.1332 9.38004 21.0832 7.26701 21.0832C6.16019 21.0832 5.05337 21.0333 3.99686 20.6836C1.93414 19.9841 0.676392 18.5353 0.273909 16.4369C0.0726722 15.4877 0.0726722 14.4885 0.0223614 13.5392C-0.0279517 11.4409 0.0223614 9.34257 0.0223614 7.24424C0.0223614 6.14512 0.0726722 5.04599 0.424842 3.99682C1.12919 1.94845 2.58818 0.699448 4.7012 0.299765C5.6571 0.0999292 6.6633 0.0999292 7.61919 0.0499646C8.57508 0 9.53097 0 10.5372 0ZM19.2404 10.3418C19.1901 10.3418 19.2404 10.3418 19.2404 10.3418C19.1901 9.49251 19.1901 8.69315 19.1901 7.84382C19.1901 7.04447 19.1398 6.24509 19.0392 5.44573C18.8379 3.64716 17.7814 2.44811 16.0206 2.0984C15.115 1.89855 14.1088 1.89855 13.2032 1.89855C11.392 1.84859 9.63119 1.84859 7.82003 1.89855C6.91445 1.89855 6.00887 1.94851 5.15359 2.0984C3.64429 2.34819 2.58778 3.19752 2.13499 4.69633C1.98406 5.19593 1.93375 5.69553 1.88344 6.19513C1.83313 8.09363 1.83313 9.99211 1.83313 11.8906C1.83313 13.0896 1.88344 14.3387 1.98406 15.5377C2.13499 17.3363 3.24181 18.5853 5.05298 18.885C5.95855 19.0349 6.91445 19.0849 7.87034 19.0849C9.63119 19.1348 11.392 19.0849 13.2032 19.0849C14.0082 19.0849 14.8131 19.0349 15.6181 18.935C16.3727 18.885 17.0771 18.6352 17.6808 18.1356C18.687 17.3363 19.0392 16.2871 19.0895 15.0881C19.1901 13.5892 19.1901 11.9905 19.2404 10.3418Z" fill="white"/>
<path fill-rule="evenodd" clip-rule="evenodd" d="M15.9705 10.5414C15.9705 13.539 13.5556 15.9371 10.537 15.9371C7.5184 15.9371 5.10352 13.539 5.10352 10.4915C5.10352 7.54383 7.56871 5.14575 10.5873 5.14575C13.5556 5.14575 15.9705 7.54383 15.9705 10.5414ZM10.5366 14.0383C12.4484 14.0383 14.0583 12.4396 14.0583 10.5412C14.0583 8.64267 12.4484 7.04395 10.5366 7.04395C8.57451 7.04395 7.01489 8.64267 7.01489 10.5412C6.96459 12.4396 8.57451 14.0383 10.5366 14.0383Z" fill="white"/>
<path d="M17.4305 4.89574C17.4305 5.59519 16.8771 6.19472 16.1728 6.19472C15.4684 6.19472 14.8647 5.59519 14.915 4.89574C14.915 4.1963 15.4684 3.64673 16.1728 3.64673C16.8771 3.64673 17.4305 4.19629 17.4305 4.89574Z" fill="white"/>
</svg>


</symbol>



</svg>