<svg aria-hidden="true" style="position: absolute; width: 0; height: 0; overflow: hidden;"
    version="1.1" xmlns="http://www.w3.org/2000/svg" xmlns:xlink="http://www.w3.org/1999/xlink">
    <defs>
        <symbol id="icon-home" viewBox="0 0 37 32">
            <path
                d="M18.667 0c-0.224 0-0.447 0.044-0.654 0.13s-0.395 0.212-0.553 0.37l-17.116 14.822c-0.107 0.078-0.194 0.18-0.254 0.298s-0.091 0.248-0.091 0.38c0 0.223 0.089 0.437 0.249 0.595s0.375 0.247 0.6 0.247h4.242v13.474c0 0.93 0.76 1.684 1.697 1.684h6.788c0.937 0 1.697-0.755 1.697-1.684v-10.105h6.788v10.105c0 0.93 0.76 1.684 1.697 1.684h6.788c0.937 0 1.697-0.755 1.697-1.684v-13.474h4.242c0.225 0 0.441-0.089 0.6-0.247s0.249-0.372 0.249-0.595c0-0.132-0.031-0.262-0.091-0.38s-0.147-0.22-0.254-0.298l-17.106-14.813c-0.003-0.003-0.007-0.007-0.010-0.010-0.158-0.158-0.346-0.284-0.553-0.37s-0.429-0.13-0.654-0.13z"></path>
        </symbol>
        <symbol id="icon-basket-prodyct" viewBox="0 0 32 32">
            <path stroke-linejoin="round" stroke-linecap="round" stroke-miterlimit="4"
                stroke-width="2.8235"
                d="M10.197 29.020c1.386 0 2.51-1.124 2.51-2.51s-1.124-2.51-2.51-2.51-2.51 1.124-2.51 2.51c0 1.386 1.124 2.51 2.51 2.51z"></path>
            <path stroke-linejoin="round" stroke-linecap="round" stroke-miterlimit="4"
                stroke-width="2.8235"
                d="M25.256 29.020c1.386 0 2.51-1.124 2.51-2.51s-1.124-2.51-2.51-2.51-2.51 1.124-2.51 2.51c0 1.386 1.124 2.51 2.51 2.51z"></path>
            <path stroke-linejoin="round" stroke-linecap="round" stroke-miterlimit="4"
                stroke-width="2.8235"
                d="M7.272 7.686h21.748l-2.108 10.529c-0.115 0.578-0.429 1.097-0.888 1.466s-1.033 0.566-1.622 0.554h-13.264c-0.613 0.005-1.206-0.214-1.669-0.616s-0.762-0.96-0.841-1.567l-1.907-14.456c-0.079-0.603-0.375-1.157-0.832-1.559s-1.044-0.624-1.653-0.625h-2.824"></path>
        </symbol>
        <symbol id="iconcheck-mark" viewBox="0 0 43 32">
            <path
                d="M41.675 0.991c-1.32-1.322-3.464-1.321-4.786 0l-21.539 21.54-9.573-9.573c-1.322-1.322-3.465-1.322-4.786 0s-1.322 3.465 0 4.787l11.966 11.966c0.661 0.66 1.527 0.992 2.393 0.992s1.733-0.33 2.394-0.992l23.932-23.932c1.322-1.321 1.322-3.465 0-4.786z"></path>
        </symbol>
        <symbol id="icon-close" viewBox="0 0 32 32">
            <path stroke="currentColor" stroke-linejoin="round" stroke-linecap="round"
                stroke-miterlimit="4" stroke-width="2.1818"
                d="M1.091 29.934l28.843-28.843"></path>
            <path stroke="currentColor" stroke-linejoin="round" stroke-linecap="round"
                stroke-miterlimit="4" stroke-width="2.1818"
                d="M29.934 29.934l-28.843-28.843"></path>
        </symbol>

        <symbol id="icon-delivery" viewBox="0 0 43 32">
            <path
                d="M40.702 15.467l-4.373-10.205c-0.112-0.263-0.298-0.488-0.537-0.646s-0.518-0.243-0.805-0.243h-4.373v-2.916c0-0.387-0.154-0.757-0.427-1.031s-0.644-0.427-1.031-0.427h-27.698c-0.387 0-0.757 0.154-1.031 0.427s-0.427 0.644-0.427 1.031v24.782c0 0.387 0.154 0.757 0.427 1.031s0.644 0.427 1.031 0.427h3.12c0.336 1.235 1.069 2.326 2.086 3.103s2.261 1.199 3.542 1.199 2.525-0.421 3.542-1.199c1.017-0.778 1.75-1.868 2.086-3.103h9.155c0.336 1.235 1.069 2.326 2.085 3.103s2.262 1.199 3.542 1.199 2.525-0.421 3.542-1.199c1.017-0.778 1.75-1.868 2.086-3.103h3.119c0.387 0 0.758-0.154 1.031-0.427s0.427-0.644 0.427-1.031v-10.205c-0-0.195-0.040-0.389-0.117-0.569zM30.614 7.289h3.411l3.12 7.289h-6.531v-7.289zM10.205 29.156c-0.577 0-1.14-0.171-1.62-0.491s-0.853-0.776-1.074-1.309-0.278-1.119-0.166-1.685c0.112-0.566 0.39-1.085 0.798-1.493s0.927-0.685 1.493-0.798c0.566-0.112 1.152-0.055 1.685 0.166s0.988 0.594 1.308 1.074c0.32 0.479 0.491 1.043 0.491 1.62 0 0.773-0.307 1.515-0.854 2.062s-1.288 0.854-2.062 0.854zM24.987 24.782h-9.155c-0.336-1.235-1.069-2.326-2.086-3.103s-2.261-1.199-3.542-1.199c-1.28 0-2.525 0.421-3.542 1.199s-1.75 1.868-2.086 3.103h-1.662v-21.867h24.783v18.31c-0.664 0.385-1.245 0.898-1.71 1.508s-0.806 1.307-1.001 2.049zM30.614 29.156c-0.577 0-1.14-0.171-1.62-0.491s-0.853-0.776-1.074-1.309c-0.221-0.533-0.278-1.119-0.166-1.685s0.39-1.085 0.798-1.493c0.408-0.408 0.927-0.685 1.493-0.798s1.152-0.055 1.685 0.166c0.533 0.221 0.988 0.594 1.309 1.074s0.491 1.043 0.491 1.62c0 0.773-0.307 1.515-0.854 2.062s-1.288 0.854-2.062 0.854zM37.903 24.782h-1.662c-0.322-1.249-1.050-2.355-2.068-3.146s-2.27-1.223-3.559-1.227v-2.916h7.289v7.289z"></path>
        </symbol>
        <symbol id="icon-facebook" viewBox="0 0 15 32">
            <path
                d="M13.739 15.293h-4.303v15.293h-6.417v-15.293h-3.020v-5.398h3.020v-3.523c0-2.474 1.208-6.372 6.417-6.372h4.756v5.248h-3.397c-0.528 0-1.359 0.3-1.359 1.499v3.149h4.831l-0.528 5.397z"></path>
        </symbol>
        <symbol id="icon-hide-view" viewBox="0 0 36 32">
            <path
                d="M32.498 2.276l-4.518 4.518c0.519 0.332 1.012 0.679 1.478 1.037 1.541 1.183 2.814 2.502 3.713 3.798 0.874 1.26 1.495 2.642 1.495 3.927s-0.621 2.667-1.495 3.927c-0.899 1.295-2.172 2.615-3.713 3.797-3.076 2.361-7.354 4.276-12.125 4.276-2.992 0-5.789-0.753-8.218-1.896l-5.061 5.061c-0.521 0.521-1.365 0.521-1.886 0s-0.521-1.365 0-1.886l28.445-28.445c0.521-0.521 1.365-0.521 1.885 0s0.521 1.365 0 1.886zM26.044 8.731l-3.148 3.148c0.698 1.054 1.105 2.318 1.105 3.677 0 3.682-2.985 6.667-6.667 6.667-1.359 0-2.623-0.407-3.677-1.105l-2.519 2.519c1.894 0.772 3.994 1.253 6.195 1.253 4.065 0 7.787-1.641 10.502-3.724 1.355-1.039 2.425-2.165 3.145-3.203 0.745-1.074 1.019-1.913 1.019-2.406s-0.274-1.333-1.019-2.406c-0.72-1.038-1.791-2.163-3.145-3.203-0.557-0.427-1.156-0.836-1.792-1.216zM15.609 19.166c0.522 0.25 1.107 0.39 1.725 0.39 2.209 0 4-1.791 4-4 0-0.618-0.14-1.202-0.39-1.725l-5.335 5.335z"></path>
            <path
                d="M17.333 3.556c1.835 0 3.598 0.283 5.246 0.766 0.317 0.093 0.412 0.49 0.178 0.724l-1.466 1.466c-0.11 0.11-0.269 0.154-0.421 0.119-1.137-0.261-2.322-0.408-3.538-0.408-4.065 0-7.787 1.641-10.502 3.724-1.354 1.040-2.425 2.165-3.145 3.203-0.745 1.074-1.019 1.913-1.019 2.406s0.274 1.333 1.019 2.406c0.629 0.907 1.525 1.879 2.644 2.804 0.206 0.17 0.226 0.481 0.037 0.67l-1.26 1.26c-0.161 0.161-0.417 0.175-0.591 0.029-1.232-1.033-2.26-2.146-3.021-3.243-0.874-1.26-1.495-2.642-1.495-3.927s0.621-2.667 1.495-3.927c0.899-1.296 2.172-2.615 3.713-3.798 3.076-2.361 7.354-4.276 12.126-4.276z"></path>
            <path
                d="M17.333 8.889c0.211 0 0.419 0.010 0.625 0.029 0.35 0.033 0.477 0.451 0.228 0.7l-2.155 2.155c-1.161 0.4-2.081 1.319-2.481 2.481l-2.155 2.155c-0.248 0.249-0.667 0.122-0.7-0.228-0.019-0.206-0.029-0.414-0.029-0.625 0-3.682 2.985-6.667 6.667-6.667z"></path>
        </symbol>
        <symbol id="icon-in" viewBox="0 0 34 32">
            <path
                d="M32.268 18.741v11.832h-6.958v-11.055c0-2.764-0.957-4.664-3.479-4.664-1.913 0-3.044 1.296-3.566 2.505-0.174 0.432-0.261 1.036-0.261 1.641v11.573h-6.958c0 0 0.087-18.742 0-20.642h6.958v2.936c0 0 0 0.086-0.087 0.086h0.087v-0.086c0.957-1.382 2.522-3.455 6.262-3.455 4.523 0 8.001 3.023 8.001 9.328zM3.914 0c-2.348 0-3.914 1.555-3.914 3.541s1.479 3.541 3.827 3.541h0.087c2.435 0 3.914-1.555 3.914-3.541-0.087-1.986-1.566-3.541-3.914-3.541zM0.35 30.574h6.871v-20.642h-6.871v20.642z"></path>
        </symbol>
        <symbol id="icon-increase" viewBox="0 0 32 32" >
            <path stroke-linejoin="round" stroke-linecap="round" stroke-miterlimit="4"
                stroke-width="1.6552" d="M28 12v-8h-8"></path>
            <path stroke-linejoin="round" stroke-linecap="round" stroke-miterlimit="4"
                stroke-width="1.6552" d="M4 20v8h8"></path>
            <path stroke-linejoin="round" stroke-linecap="round" stroke-miterlimit="4"
                stroke-width="1.6552" d="M28 4l-10 10"></path>
            <path stroke-linejoin="round" stroke-linecap="round" stroke-miterlimit="4"
                stroke-width="1.6552" d="M14 18l-10 10"></path>
        </symbol>
        <symbol id="icon-instagram" viewBox="0 0 32 32">
            <path
                d="M15.327 0c2.049 0.073 4.171 0.073 6.22 0.145 1.83 0.073 3.513 0.363 5.122 1.308 2.049 1.235 3.293 3.052 3.732 5.378 0.22 1.381 0.293 2.834 0.366 4.215 0.073 3.052 0 6.104 0 9.156 0 1.599-0.073 3.198-0.585 4.724-1.024 2.979-3.147 4.796-6.22 5.377-1.39 0.291-2.854 0.291-4.244 0.363-3.073 0.073-6.074 0-9.147 0-1.61 0-3.22-0.073-4.757-0.581-3-1.017-4.83-3.125-5.415-6.177-0.293-1.381-0.293-2.834-0.366-4.215-0.073-3.052 0-6.104 0-9.156 0-1.599 0.073-3.197 0.585-4.724 1.024-2.979 3.147-4.796 6.22-5.378 1.39-0.291 2.854-0.291 4.244-0.363s2.781-0.073 4.244-0.073zM27.986 15.043c-0.073 0 0 0 0 0-0.073-1.235-0.073-2.398-0.073-3.633 0-1.163-0.073-2.325-0.22-3.488-0.293-2.616-1.83-4.36-4.391-4.869-1.317-0.291-2.781-0.291-4.098-0.291-2.634-0.073-5.196-0.073-7.83 0-1.317 0-2.634 0.073-3.878 0.291-2.195 0.363-3.732 1.599-4.391 3.779-0.22 0.727-0.293 1.453-0.366 2.18-0.073 2.761-0.073 5.523-0.073 8.284 0 1.744 0.073 3.561 0.22 5.305 0.22 2.616 1.829 4.433 4.464 4.869 1.317 0.218 2.708 0.291 4.098 0.291 2.561 0.073 5.122 0 7.757 0 1.171 0 2.342-0.073 3.513-0.218 1.098-0.073 2.122-0.436 3-1.163 1.464-1.163 1.976-2.689 2.049-4.433 0.146-2.18 0.146-4.506 0.22-6.904z"></path>
            <path
                d="M23.23 15.333c0 4.36-3.513 7.848-7.903 7.848s-7.903-3.488-7.903-7.921c0-4.288 3.586-7.776 7.976-7.776 4.318 0 7.83 3.488 7.83 7.848zM15.326 20.419c2.781 0 5.122-2.325 5.122-5.087s-2.342-5.087-5.122-5.087c-2.854 0-5.122 2.325-5.122 5.087-0.073 2.761 2.269 5.087 5.122 5.087z"></path>
            <path
                d="M25.353 7.121c0 1.017-0.805 1.889-1.829 1.889s-1.903-0.872-1.83-1.889c0-1.017 0.805-1.817 1.83-1.817s1.829 0.799 1.829 1.817z"></path>
        </symbol>
        <symbol id="icon-interes" viewBox="0 0 32 32">
            <path
                d="M24.517 19.599c1.214-0.242 2.474-0.118 3.618 0.356s2.122 1.276 2.81 2.305c0.688 1.029 1.055 2.24 1.055 3.478 0 1.661-0.66 3.254-1.834 4.428s-2.766 1.834-4.426 1.834c-1.238 0-2.449-0.368-3.478-1.055s-1.834-1.666-2.308-2.81c-0.474-1.144-0.597-2.404-0.356-3.618s0.839-2.329 1.714-3.204c0.875-0.875 1.99-1.472 3.204-1.714zM29.789 0.087c0.28-0.005 0.56 0.046 0.82 0.151s0.497 0.263 0.695 0.462c0.198 0.198 0.354 0.433 0.459 0.692s0.157 0.539 0.151 0.82c-0.005 0.28-0.066 0.557-0.18 0.813s-0.278 0.487-0.483 0.678l-27.548 27.546c-0.193 0.195-0.422 0.352-0.675 0.457s-0.526 0.158-0.8 0.156c-0.274 0.001-0.545-0.051-0.798-0.156s-0.483-0.262-0.675-0.457c-0.391-0.391-0.611-0.921-0.611-1.473s0.22-1.085 0.611-1.476l27.548-27.546c0.191-0.205 0.42-0.372 0.675-0.486s0.533-0.175 0.813-0.18zM25.74 23.652c-0.413 0-0.818 0.124-1.161 0.353s-0.611 0.554-0.769 0.935c-0.158 0.381-0.198 0.802-0.118 1.207s0.28 0.776 0.572 1.067c0.292 0.292 0.663 0.492 1.067 0.572s0.825 0.040 1.207-0.118c0.381-0.158 0.706-0.426 0.935-0.769s0.353-0.748 0.353-1.161c-0.008-0.551-0.231-1.077-0.62-1.466s-0.915-0.613-1.466-0.62zM5.038 0.12c1.214-0.242 2.474-0.118 3.618 0.356s2.122 1.278 2.81 2.308c0.688 1.029 1.055 2.24 1.055 3.478-0 1.66-0.66 3.252-1.834 4.425s-2.765 1.834-4.425 1.834c-1.238 0-2.449-0.368-3.478-1.055s-1.834-1.666-2.308-2.81c-0.474-1.144-0.597-2.404-0.356-3.618s0.839-2.329 1.714-3.204 1.99-1.472 3.204-1.714zM6.262 4.173c-0.413 0-0.818 0.124-1.161 0.353s-0.611 0.554-0.769 0.935c-0.158 0.381-0.198 0.802-0.118 1.207s0.28 0.776 0.572 1.067 0.663 0.492 1.067 0.572c0.405 0.081 0.825 0.040 1.207-0.118s0.706-0.426 0.935-0.769c0.229-0.343 0.353-0.746 0.353-1.159-0.007-0.551-0.23-1.079-0.62-1.469s-0.916-0.613-1.466-0.62z"></path>
        </symbol>
        <symbol id="icon-left-arrow" viewBox="0 0 43 32">
            <path
                d="M40 13.357h-33.497l10.082-10.082c0.182-0.176 0.327-0.386 0.427-0.618s0.152-0.482 0.155-0.735c0.002-0.253-0.046-0.504-0.142-0.738s-0.237-0.447-0.416-0.626c-0.179-0.179-0.392-0.32-0.626-0.416s-0.485-0.144-0.738-0.142c-0.253 0.002-0.503 0.055-0.735 0.155s-0.443 0.245-0.618 0.427l-13.333 13.333c-0.357 0.357-0.558 0.842-0.558 1.347s0.201 0.989 0.558 1.347l13.333 13.333c0.359 0.347 0.84 0.539 1.34 0.535s0.977-0.205 1.33-0.558c0.353-0.353 0.553-0.831 0.558-1.331s-0.188-0.981-0.535-1.34l-10.082-10.082h33.497c0.505 0 0.99-0.201 1.347-0.558s0.558-0.842 0.558-1.347c0-0.505-0.201-0.99-0.558-1.347s-0.842-0.558-1.347-0.558z"></path>
        </symbol>
        <symbol id="icon-logo" viewBox="0 0 36 32">
            <path
                d="M18.807 0l-0.694 0.74v14.921h16.992l0.841-0.609-14.274-2.52-2.865-12.532zM0.843 16.347l-0.843 0.609 14.273 2.511 2.864 12.533 0.694-0.74v-14.913h-16.988z"></path>
        </symbol>
        <symbol id="icon-package" viewBox="0 0 15 15">
            <path d="M14.5 4L7.5 0.5L0.5 4V11L7.5 14.5L14.5 11V4Z"
                fill="none" stroke="currentColor" stroke-linejoin="round" />
            <path d="M11 2.25L4 5.75M0.5 4L7.5 7.5L0.5 4ZM7.5 14.5V7.5V14.5ZM14.5 4L7.5 7.5L14.5 4Z"
                fill="none" stroke="currentColor" stroke-linecap="round" stroke-linejoin="round" />
        </symbol>


        <symbol id="icon-small-arrow" viewBox="0 0 19 32">
            <path
                fill="var(--color1, #fe5f00)"
                stroke-linejoin="miter"
                stroke-linecap="butt"
                stroke-miterlimit="4"
                stroke-width="2.6667"
                stroke="#000"
                d="M2.81 30.661c-0.412 0.033-0.799-0.081-1.073-0.276-0.269-0.191-0.381-0.422-0.401-0.607-0.019-0.179 0.040-0.395 0.237-0.599l12.813-13.164-12.411-13.198c-0.145-0.149-0.214-0.304-0.234-0.44-0.020-0.134 0.002-0.28 0.083-0.427 0.084-0.15 0.234-0.306 0.461-0.427s0.505-0.193 0.799-0.19h0.018c0.229-0.001 0.451 0.043 0.646 0.122s0.352 0.189 0.464 0.307l12.888 13.719 0.109 0.135c0.090 0.136 0.125 0.274 0.125 0.393-0 0.157-0.062 0.343-0.229 0.521l-13.336 13.714c-0.206 0.213-0.546 0.384-0.958 0.417z"
            ></path>
        </symbol>

        <symbol id="icon-trash-basket" viewBox=" 0 0 32 32" fill=" none">
            <path stroke=" currentColor" stroke-linejoin=" round" stroke-linecap=" round"
                stroke-miterlimit=" 4"
                stroke-width=" 3"
                d=" M8.985 3.106c0.226-0.48 0.585-0.886 1.033-1.171s0.968-0.435 1.499-0.435h7.969c0.531-0 1.051 0.151 1.5 0.435s0.807 0.69 1.034 1.171l1.882 3.994h-16.8l1.883-3.994z" />
            <path stroke=" currentColor" stroke-linejoin=" round" stroke-linecap=" round"
                stroke-miterlimit=" 4"
                stroke-width=" 3"
                d=" M4.301 7.1h22.4l-2.212 19.908c-0.076 0.685-0.402 1.318-0.915 1.778s-1.179 0.714-1.868 0.714h-12.41c-0.689 0-1.354-0.254-1.868-0.714s-0.839-1.093-0.915-1.778l-2.212-19.908z" />
            <path stroke=" currentColor" stroke-linejoin=" round" stroke-linecap=" round"
                stroke-miterlimit=" 4"
                stroke-width=" 3" d=" M1.5 7.1h28" />
            <path stroke=" currentColor" stroke-linejoin=" round" stroke-linecap=" round"
                stroke-miterlimit=" 4"
                stroke-width=" 3" d=" M12.699 14.1v7" />
            <path stroke=" currentColor" stroke-linejoin=" round" stroke-linecap=" round"
                stroke-miterlimit=" 4"
                stroke-width=" 3" d=" M18.301 14.1v7" />
        </symbol>

        <symbol id="icon-twitter" viewBox="0 0 39 32">
            <path
                d="M37.644 3.606c-1.417 0.616-2.834 1.056-4.429 1.231 1.594-0.968 2.834-2.463 3.366-4.222-1.506 0.88-3.189 1.495-4.872 1.847-1.417-1.495-3.454-2.463-5.669-2.463-4.252 0-7.706 3.43-7.706 7.652 0 0.616 0.089 1.231 0.177 1.759-6.466-0.352-12.135-3.342-15.944-8.004-0.709 1.143-1.063 2.463-1.063 3.87 0 2.639 1.329 5.014 3.454 6.421-1.24 0-2.48-0.352-3.543-0.968v0.088c0 3.694 2.657 6.861 6.2 7.565-0.62 0.176-1.329 0.264-2.037 0.264-0.531 0-0.974-0.088-1.417-0.176 0.974 3.078 3.809 5.277 7.263 5.365-2.657 2.023-5.935 3.255-9.566 3.255-0.62 0-1.24 0-1.86-0.088 3.454 2.199 7.44 3.43 11.869 3.43 14.261 0 21.967-11.698 21.967-21.814 0-0.352 0-0.704 0-0.968 1.506-1.143 2.834-2.551 3.809-4.046z"></path>
        </symbol>
        <symbol id="icon-update" viewBox=" 0 0 27 32">
            <path
                d="M11.559 0.403c0.133-0.128 0.29-0.229 0.464-0.298s0.359-0.105 0.547-0.105c0.188 0 0.373 0.036 0.547 0.105s0.331 0.171 0.463 0.298l6.149 5.924c0.133 0.128 0.238 0.28 0.31 0.447s0.109 0.346 0.109 0.527c0 0.181-0.037 0.36-0.109 0.527s-0.177 0.319-0.31 0.447l-6.149 5.924c-0.133 0.128-0.29 0.229-0.464 0.298s-0.359 0.105-0.547 0.105c-0.188-0-0.374-0.036-0.547-0.105s-0.331-0.171-0.464-0.299c-0.133-0.128-0.238-0.28-0.31-0.447s-0.109-0.346-0.108-0.527c0-0.181 0.037-0.36 0.109-0.527s0.177-0.319 0.31-0.447l3.71-3.572h-2.345c-1.991 0-3.937 0.569-5.593 1.635s-2.946 2.58-3.708 4.353c-0.762 1.772-0.961 3.722-0.573 5.604s1.347 3.61 2.755 4.966c1.408 1.356 3.201 2.28 5.154 2.654s3.977 0.182 5.816-0.552 3.412-1.977 4.518-3.572c1.106-1.595 1.696-3.47 1.696-5.388 0-0.365 0.15-0.715 0.419-0.973s0.631-0.403 1.010-0.403 0.742 0.145 1.010 0.403c0.268 0.258 0.419 0.608 0.419 0.973 0 2.463-0.758 4.87-2.178 6.918s-3.438 3.644-5.8 4.586-4.96 1.189-7.467 0.709c-2.507-0.48-4.81-1.666-6.617-3.408s-3.038-3.96-3.537-6.375-0.243-4.919 0.735-7.194c0.978-2.275 2.635-4.22 4.76-5.588s4.624-2.098 7.18-2.098h2.345l-3.71-3.574c-0.133-0.128-0.238-0.28-0.31-0.447s-0.109-0.346-0.109-0.527c0-0.181 0.037-0.36 0.109-0.527s0.177-0.319 0.31-0.447z"></path>
        </symbol>
        <symbol id="icon-update-product" viewBox=" 0 0 35 32">
            <path stroke-linejoin=" miter" stroke-linecap=" butt" stroke-miterlimit=" 4"
                stroke-width=" 0.3378"
                d=" M15.665 31.16c0.45 0 0.816-0.366 0.816-0.816s-0.366-0.816-0.816-0.816c-7.645 0-13.865-6.22-13.865-13.865s6.22-13.864 13.865-13.864c7.37 0 13.398 5.784 13.824 13.049h-2.406c-0.33 0-0.628 0.199-0.754 0.504s-0.056 0.656 0.176 0.889l3.262 3.262c0.16 0.158 0.369 0.238 0.578 0.238s0.418-0.080 0.577-0.238l3.262-3.262c0.233-0.233 0.303-0.584 0.176-0.889s-0.424-0.504-0.753-0.504h-2.487c-0.429-8.164-7.185-14.68-15.455-14.68-8.544 0-15.496 6.952-15.496 15.496s6.952 15.495 15.496 15.495l-0-0.001zM30.345 17.773l-1.293-1.293h2.587l-1.294 1.293z"></path>
        </symbol>
        <symbol id="icon-watch" viewBox="0 0 32 32">
            <path fill="currentColor"
                d="M2.666 16c0-7.364 5.969-13.333 13.333-13.333s13.333 5.969 13.333 13.333c0 7.364-5.969 13.333-13.333 13.333s-13.333-5.969-13.333-13.333z
           M17.332 10.667c0-0.354-0.14-0.693-0.391-0.943s-0.589-0.391-0.943-0.391c-0.354 0-0.693 0.14-0.943 0.391
           s-0.391 0.589-0.391 0.943v5.333c0 0.354 0.141 0.693 0.391 0.943l4 4
           c0.251 0.243 0.588 0.377 0.938 0.374s0.684-0.143 0.931-0.391 0.387-0.582 0.39-0.931
           c0.003-0.35-0.131-0.686-0.374-0.938l-3.609-3.609v-4.781z">
            </path>
        </symbol>

        <symbol id="icon-basket-load2" viewBox=" 0 0 32 32">
            <path
                d="M2.666 16c0-7.364 5.969-13.333 13.333-13.333s13.333 5.969 13.333 13.333c0 7.364-5.969 13.333-13.333 13.333s-13.333-5.969-13.333-13.333zM17.332 10.667c0-0.354-0.14-0.693-0.391-0.943s-0.589-0.391-0.943-0.391c-0.354 0-0.693 0.14-0.943 0.391s-0.391 0.589-0.391 0.943v5.333c0 0.354 0.141 0.693 0.391 0.943l4 4c0.251 0.243 0.588 0.377 0.938 0.374s0.684-0.143 0.931-0.391 0.387-0.582 0.39-0.931c0.003-0.35-0.131-0.686-0.374-0.938l-3.609-3.609v-4.781z"></path>
        </symbol>
        <symbol>
            <svg id="basket-icon" width="17" height="17" viewBox="0 0 17 17" fill="none"
                xmlns="http://www.w3.org/2000/svg">
                <path
                    d="M5.41732 15.4167C6.1537 15.4167 6.75065 14.8197 6.75065 14.0833C6.75065 13.347 6.1537 12.75 5.41732 12.75C4.68094 12.75 4.08398 13.347 4.08398 14.0833C4.08398 14.8197 4.68094 15.4167 5.41732 15.4167Z"
                    stroke="currentColor" stroke-width="1.5" stroke-linecap="round"
                    stroke-linejoin="round" />
                <path
                    d="M13.4173 15.4167C14.1537 15.4167 14.7507 14.8197 14.7507 14.0833C14.7507 13.347 14.1537 12.75 13.4173 12.75C12.6809 12.75 12.084 13.347 12.084 14.0833C12.084 14.8197 12.6809 15.4167 13.4173 15.4167Z"
                    stroke="currentColor" stroke-width="1.5" stroke-linecap="round"
                    stroke-linejoin="round" />
                <path
                    d="M3.86333 4.08333H15.4167L14.2967 9.67667C14.2357 9.9836 14.0687 10.2593 13.825 10.4555C13.5812 10.6518 13.2762 10.756 12.9633 10.75H5.91667C5.59112 10.7528 5.27582 10.6363 5.0302 10.4226C4.78459 10.209 4.62564 9.91279 4.58333 9.59L3.57 1.91C3.52798 1.58949 3.37095 1.29516 3.12813 1.08178C2.88532 0.868395 2.57325 0.750489 2.25 0.75H0.75"
                    stroke="currentColor" stroke-width="1.5" stroke-linecap="round"
                    stroke-linejoin="round" />
            </svg>
        </symbol>


    </defs>
</svg>