<svg width="22" height="22" viewBox="0 0 22 22" fill="none" xmlns="http://www.w3.org/2000/svg">
<path fill-rule="evenodd" clip-rule="evenodd" d="M10.5372 0C11.9459 0.0499646 13.4048 0.0499646 14.8135 0.0999226C16.0713 0.149881 17.2284 0.349724 18.3352 0.999205C19.7439 1.84853 20.5992 3.09754 20.9011 4.69627C21.052 5.64551 21.1023 6.64471 21.1526 7.59397C21.2029 9.69229 21.1526 11.7906 21.1526 13.8889C21.1526 14.9881 21.1023 16.0872 20.7501 17.1364C20.0458 19.1847 18.5868 20.4337 16.4738 20.8334C15.5179 21.0333 14.5117 21.0333 13.5558 21.0832C11.4428 21.1332 9.38004 21.0832 7.26701 21.0832C6.16019 21.0832 5.05337 21.0333 3.99686 20.6836C1.93414 19.9841 0.676392 18.5353 0.273909 16.4369C0.0726722 15.4877 0.0726722 14.4885 0.0223614 13.5392C-0.0279517 11.4409 0.0223614 9.34257 0.0223614 7.24424C0.0223614 6.14512 0.0726722 5.04599 0.424842 3.99682C1.12919 1.94845 2.58818 0.699448 4.7012 0.299765C5.6571 0.0999292 6.6633 0.0999292 7.61919 0.0499646C8.57508 0 9.53097 0 10.5372 0ZM19.2404 10.3418C19.1901 10.3418 19.2404 10.3418 19.2404 10.3418C19.1901 9.49251 19.1901 8.69315 19.1901 7.84382C19.1901 7.04447 19.1398 6.24509 19.0392 5.44573C18.8379 3.64716 17.7814 2.44811 16.0206 2.0984C15.115 1.89855 14.1088 1.89855 13.2032 1.89855C11.392 1.84859 9.63119 1.84859 7.82003 1.89855C6.91445 1.89855 6.00887 1.94851 5.15359 2.0984C3.64429 2.34819 2.58778 3.19752 2.13499 4.69633C1.98406 5.19593 1.93375 5.69553 1.88344 6.19513C1.83313 8.09363 1.83313 9.99211 1.83313 11.8906C1.83313 13.0896 1.88344 14.3387 1.98406 15.5377C2.13499 17.3363 3.24181 18.5853 5.05298 18.885C5.95855 19.0349 6.91445 19.0849 7.87034 19.0849C9.63119 19.1348 11.392 19.0849 13.2032 19.0849C14.0082 19.0849 14.8131 19.0349 15.6181 18.935C16.3727 18.885 17.0771 18.6352 17.6808 18.1356C18.687 17.3363 19.0392 16.2871 19.0895 15.0881C19.1901 13.5892 19.1901 11.9905 19.2404 10.3418Z" fill="white"/>
<path fill-rule="evenodd" clip-rule="evenodd" d="M15.9705 10.5414C15.9705 13.539 13.5556 15.9371 10.537 15.9371C7.5184 15.9371 5.10352 13.539 5.10352 10.4915C5.10352 7.54383 7.56871 5.14575 10.5873 5.14575C13.5556 5.14575 15.9705 7.54383 15.9705 10.5414ZM10.5366 14.0383C12.4484 14.0383 14.0583 12.4396 14.0583 10.5412C14.0583 8.64267 12.4484 7.04395 10.5366 7.04395C8.57451 7.04395 7.01489 8.64267 7.01489 10.5412C6.96459 12.4396 8.57451 14.0383 10.5366 14.0383Z" fill="white"/>
<path d="M17.4305 4.89574C17.4305 5.59519 16.8771 6.19472 16.1728 6.19472C15.4684 6.19472 14.8647 5.59519 14.915 4.89574C14.915 4.1963 15.4684 3.64673 16.1728 3.64673C16.8771 3.64673 17.4305 4.19629 17.4305 4.89574Z" fill="white"/>
</svg>
