<svg width="12" height="14" viewBox="0 0 12 14" fill="none" xmlns="http://www.w3.org/2000/svg">
<path d="M5.057 0.17643C5.11504 0.120496 5.18395 0.0761253 5.25979 0.0458532C5.33563 0.015581 5.41691 0 5.499 0C5.58109 0 5.66238 0.015581 5.73822 0.0458532C5.81406 0.0761253 5.88296 0.120496 5.941 0.17643L8.631 2.7682C8.68906 2.82412 8.73511 2.89051 8.76653 2.96358C8.79795 3.03665 8.81412 3.11497 8.81412 3.19406C8.81412 3.27315 8.79795 3.35147 8.76653 3.42454C8.73511 3.49761 8.68906 3.564 8.631 3.61992L5.941 6.21169C5.88289 6.26761 5.81392 6.31196 5.73802 6.3422C5.66212 6.37245 5.58078 6.38799 5.49865 6.38794C5.41652 6.3879 5.3352 6.37227 5.25933 6.34194C5.18347 6.31162 5.11455 6.26719 5.0565 6.21121C4.99846 6.15522 4.95243 6.08876 4.92104 6.01564C4.88965 5.94251 4.87352 5.86414 4.87357 5.78501C4.87361 5.70587 4.88984 5.62752 4.92131 5.55443C4.95278 5.48133 4.99889 5.41493 5.057 5.359L6.68 3.79624H5.654C4.78297 3.79624 3.93151 4.04509 3.20727 4.51134C2.48304 4.97759 1.91857 5.64028 1.58524 6.41562C1.25191 7.19096 1.1647 8.04412 1.33462 8.86722C1.50455 9.69032 1.92399 10.4464 2.5399 11.0398C3.15582 11.6332 3.94053 12.0373 4.79483 12.2011C5.64912 12.3648 6.53462 12.2808 7.33934 11.9596C8.14407 11.6384 8.83188 11.0946 9.31579 10.3968C9.79971 9.69901 10.058 8.87864 10.058 8.03942C10.058 7.87971 10.1238 7.72654 10.2411 7.61361C10.3583 7.50068 10.5172 7.43724 10.683 7.43724C10.8488 7.43724 11.0077 7.50068 11.1249 7.61361C11.2422 7.72654 11.308 7.87971 11.308 8.03942C11.308 9.11684 10.9764 10.1701 10.3551 11.0659C9.73386 11.9617 8.85083 12.66 7.8177 13.0723C6.78456 13.4846 5.64773 13.5925 4.55096 13.3823C3.45419 13.1721 2.44675 12.6533 1.65602 11.8914C0.865295 11.1296 0.326803 10.1589 0.108643 9.10218C-0.109518 8.04546 0.00244984 6.95014 0.430388 5.95473C0.858326 4.95933 1.58301 4.10854 2.51281 3.50996C3.4426 2.91137 4.53575 2.59188 5.654 2.59188H6.68L5.057 1.02815C4.99895 0.972229 4.9529 0.905839 4.92148 0.832769C4.89006 0.759699 4.87389 0.681382 4.87389 0.602289C4.87389 0.523197 4.89006 0.444879 4.92148 0.371809C4.9529 0.29874 4.99895 0.232349 5.057 0.17643Z" fill="#8F939F"/>
</svg>
