<svg width="13" height="13" viewBox="0 0 13 13" fill="none" xmlns="http://www.w3.org/2000/svg">
<path d="M9.95996 7.96199C10.4532 7.86387 10.965 7.91412 11.4297 8.10652C11.8943 8.29897 12.2918 8.62496 12.5713 9.04305C12.8507 9.4612 12.9999 9.95323 13 10.4561C13 11.1307 12.7319 11.778 12.2549 12.255C11.778 12.7318 11.1314 13 10.457 13.0001C9.95408 13.0001 9.46216 12.8507 9.04395 12.5714C8.62567 12.2919 8.29895 11.8945 8.10645 11.4298C7.91402 10.9651 7.86379 10.4533 7.96191 9.96004C8.06009 9.46679 8.3026 9.01391 8.6582 8.65828C9.01381 8.30267 9.46675 8.06019 9.95996 7.96199ZM12.1016 0.0352325C12.2154 0.0332243 12.329 0.0541255 12.4346 0.096756C12.5401 0.139397 12.6363 0.203748 12.7168 0.284256C12.7971 0.364647 12.8608 0.460168 12.9033 0.565506C12.946 0.671075 12.9669 0.784676 12.9648 0.898514C12.9628 1.01226 12.9379 1.12468 12.8916 1.22859C12.8453 1.33254 12.7786 1.4264 12.6953 1.50398L1.50391 12.6944C1.42568 12.7736 1.3323 12.8373 1.22949 12.88C1.12661 12.9227 1.01569 12.944 0.904297 12.9434C0.793082 12.9439 0.682813 12.9226 0.580078 12.88C0.477195 12.8373 0.38394 12.7737 0.305664 12.6944C0.146945 12.5355 0.0576302 12.3204 0.0576172 12.0958C0.0576172 11.8711 0.146894 11.6551 0.305664 11.4962L11.4971 0.30574C11.5746 0.22249 11.6676 0.15481 11.7715 0.108475C11.8754 0.0621904 11.9879 0.0372924 12.1016 0.0352325ZM10.457 9.60847C10.2893 9.60847 10.1248 9.65887 9.98535 9.75203C9.8461 9.84518 9.73697 9.97713 9.67285 10.1319C9.60868 10.2868 9.59229 10.4577 9.625 10.6221C9.65773 10.7865 9.7389 10.9372 9.85742 11.0557C9.97595 11.1743 10.1266 11.2554 10.291 11.2882C10.4555 11.3209 10.6263 11.3045 10.7812 11.2403C10.936 11.1762 11.068 11.0671 11.1611 10.9278C11.2543 10.7884 11.3047 10.6238 11.3047 10.4561C11.3016 10.2323 11.211 10.0187 11.0527 9.86043C10.8945 9.70217 10.6808 9.6115 10.457 9.60847ZM2.04688 0.0489044C2.54016 -0.0492165 3.05192 0.0010218 3.5166 0.193436C3.98136 0.385946 4.37872 0.712663 4.6582 1.13094C4.93757 1.54915 5.08691 2.04108 5.08691 2.54402C5.08679 3.21843 4.81868 3.86499 4.3418 4.34187C3.86491 4.81876 3.21835 5.08687 2.54395 5.08699C2.041 5.08699 1.54907 4.93764 1.13086 4.65828C0.712587 4.3788 0.385869 3.98144 0.193359 3.51668C0.000945503 3.05199 -0.0492928 2.54024 0.0488281 2.04695C0.147017 1.55371 0.389495 1.10082 0.745117 0.745193C1.10074 0.389571 1.55363 0.147093 2.04688 0.0489044ZM2.54395 1.69539C2.37626 1.69539 2.21169 1.74578 2.07227 1.83894C1.933 1.93208 1.8239 2.06405 1.75977 2.21883C1.6956 2.37375 1.6792 2.5446 1.71191 2.70906C1.74464 2.87348 1.8258 3.02411 1.94434 3.14265C2.06287 3.26119 2.21352 3.34234 2.37793 3.37508C2.54239 3.40779 2.71324 3.39139 2.86816 3.32722C3.02295 3.26309 3.15491 3.154 3.24805 3.01472C3.34112 2.87543 3.39151 2.71154 3.3916 2.54402C3.38867 2.32007 3.29802 2.10571 3.13965 1.94734C2.98139 1.7891 2.76771 1.69843 2.54395 1.69539Z" fill="#CECECE"/>
</svg>
