<svg width="22" height="21" viewBox="0 0 22 21" fill="none" xmlns="http://www.w3.org/2000/svg">
<path fill-rule="evenodd" clip-rule="evenodd" d="M21.176 12.299V20.064H16.61V12.8091C16.61 10.9954 15.9822 9.74848 14.327 9.74848C13.0713 9.74848 12.3293 10.5987 11.9869 11.3922C11.8727 11.6755 11.8156 12.0723 11.8156 12.469V20.064H7.24962C7.24962 20.064 7.30669 7.76473 7.24962 6.51781H11.8156V8.44487C11.8156 8.44487 11.8156 8.50154 11.7586 8.50154H11.8156V8.44487C12.4435 7.53802 13.4708 6.17773 15.9251 6.17773C18.893 6.17773 21.176 8.16148 21.176 12.299ZM2.56839 0C1.02736 0 0 1.02021 0 2.32382C0 3.62742 0.970283 4.64765 2.51132 4.64765H2.56839C4.16651 4.64765 5.13679 3.62743 5.13679 2.32382C5.07971 1.02021 4.10943 0 2.56839 0ZM0.229382 20.0642H4.73834V6.51807H0.229382V20.0642Z" fill="white"/>
</svg>
