<svg width="7" height="12" viewBox="0 0 7 12" fill="none" xmlns="http://www.w3.org/2000/svg">
<path d="M1.05371 11.498C0.899117 11.5102 0.754029 11.4676 0.651367 11.3945C0.550476 11.3227 0.508436 11.2363 0.500977 11.167C0.493802 11.0997 0.515888 11.019 0.589844 10.9424L5.06055 6.34863L5.39453 6.00586L5.06641 5.65723L0.745118 1.06348L0.740235 1.05664C0.68594 1.00078 0.659901 0.942741 0.652345 0.891601C0.644932 0.84118 0.65307 0.786441 0.683595 0.731445C0.714918 0.675039 0.771505 0.616678 0.856446 0.571289C0.941565 0.525804 1.04572 0.498927 1.15625 0.499999L1.16309 0.499999C1.24909 0.49977 1.33211 0.516157 1.40527 0.545898C1.47847 0.575653 1.53716 0.616828 1.5791 0.661132L6.4082 5.80176L6.41211 5.80566L6.45313 5.85645C6.48707 5.90762 6.5 5.95903 6.5 6.00391C6.49997 6.06295 6.47687 6.13258 6.41406 6.19922L1.41309 11.3418C1.33572 11.4216 1.20848 11.4858 1.05371 11.498Z" fill="#FE5F00" stroke="url(#paint0_linear_116646_4917)"/>
<defs>
<linearGradient id="paint0_linear_116646_4917" x1="3.17674" y1="4.64223e-08" x2="3.3703" y2="11.9981" gradientUnits="userSpaceOnUse">
<stop stop-color="#07575B" stop-opacity="0.8"/>
</linearGradient>
</defs>
</svg>
