<svg width="20" height="20" viewBox="0 0 20 20" fill="none" xmlns="http://www.w3.org/2000/svg">
<path fill-rule="evenodd" clip-rule="evenodd" d="M1.66602 10C1.66602 5.39752 5.39685 1.66669 9.99935 1.66669C14.6018 1.66669 18.3327 5.39752 18.3327 10C18.3327 14.6025 14.6018 18.3334 9.99935 18.3334C5.39685 18.3334 1.66602 14.6025 1.66602 10ZM10.8327 6.66669C10.8327 6.44567 10.7449 6.23371 10.5886 6.07743C10.4323 5.92115 10.2204 5.83335 9.99935 5.83335C9.77833 5.83335 9.56637 5.92115 9.41009 6.07743C9.25381 6.23371 9.16601 6.44567 9.16601 6.66669V10C9.16606 10.221 9.25389 10.4329 9.41018 10.5892L11.9102 13.0892C12.0673 13.241 12.2779 13.325 12.4963 13.3231C12.7148 13.3212 12.9239 13.2335 13.0784 13.079C13.2329 12.9245 13.3205 12.7155 13.3224 12.497C13.3243 12.2785 13.2403 12.068 13.0885 11.9109L10.8327 9.65502V6.66669Z" fill="black"/>
</svg>
