<svg width="221" height="221" viewBox="0 0 221 221" fill="none" xmlns="http://www.w3.org/2000/svg">
<path d="M70.4577 219.833C81.4573 219.833 90.3743 210.916 90.3743 199.917C90.3743 188.917 81.4573 180 70.4577 180C59.458 180 50.541 188.917 50.541 199.917C50.541 210.916 59.458 219.833 70.4577 219.833Z" stroke="#66A5AD" stroke-width="1.5" stroke-linecap="round" stroke-linejoin="round"/>
<path d="M189.958 219.833C200.957 219.833 209.874 210.916 209.874 199.917C209.874 188.917 200.957 180 189.958 180C178.958 180 170.041 188.917 170.041 199.917C170.041 210.916 178.958 219.833 189.958 219.833Z" stroke="#66A5AD" stroke-width="1.5" stroke-linecap="round" stroke-linejoin="round"/>
<path d="M47.2554 50.5417H219.833L203.103 134.092C202.193 138.677 199.698 142.795 196.057 145.726C192.416 148.657 187.86 150.215 183.187 150.125H77.9271C73.0643 150.166 68.3544 148.427 64.6855 145.235C61.0167 142.043 58.6424 137.619 58.0104 132.798L42.8737 18.0775C42.246 13.2899 39.9004 8.89336 36.2734 5.70594C32.6463 2.51853 27.9848 0.757311 23.1562 0.75H0.75" stroke="#66A5AD" stroke-width="1.5" stroke-linecap="round" stroke-linejoin="round"/>
</svg>
