<svg width="16" height="16" viewBox="0 0 16 16" fill="none" xmlns="http://www.w3.org/2000/svg">
<path d="M2.15039 3.54999H13.3504L12.2444 13.504C12.2065 13.8466 12.0435 14.1631 11.7868 14.393C11.53 14.6229 11.1974 14.75 10.8528 14.75H4.64799C4.30334 14.75 3.97078 14.6229 3.71401 14.393C3.45724 14.1631 3.2943 13.8466 3.25639 13.504L2.15039 3.54999Z" stroke="black" stroke-width="1.5" stroke-linecap="round" stroke-linejoin="round"/>
<path d="M4.49228 1.5529C4.60551 1.31278 4.78468 1.1098 5.00888 0.967638C5.23309 0.825477 5.4931 0.749997 5.75858 0.75H9.74298C10.0086 0.749864 10.2687 0.825282 10.4931 0.96745C10.7174 1.10962 10.8967 1.31267 11.01 1.5529L11.9508 3.55H3.55078L4.49228 1.5529Z" stroke="black" stroke-width="1.5" stroke-linecap="round" stroke-linejoin="round"/>
<path d="M0.75 3.54999H14.75" stroke="black" stroke-width="1.5" stroke-linecap="round" stroke-linejoin="round"/>
<path d="M6.34961 7.04999V10.55" stroke="black" stroke-width="1.5" stroke-linecap="round" stroke-linejoin="round"/>
<path d="M9.15039 7.04999V10.55" stroke="black" stroke-width="1.5" stroke-linecap="round" stroke-linejoin="round"/>
</svg>
