<svg width="40" height="37" viewBox="0 0 40 37" fill="none" xmlns="http://www.w3.org/2000/svg">
<path d="M18.1128 36.0288C18.6332 36.0288 19.0558 35.6062 19.0558 35.0858C19.0558 34.5653 18.6332 34.1428 18.1128 34.1428C9.27295 34.1428 2.08194 26.9514 2.08194 18.1119C2.08194 9.27249 9.27331 2.08113 18.1128 2.08113C26.6339 2.08113 33.6045 8.76892 34.0969 17.1695H31.3149C30.9337 17.1695 30.5887 17.3997 30.4434 17.7524C30.2981 18.1051 30.3792 18.5105 30.647 18.7803L34.419 22.5523C34.6043 22.7348 34.8454 22.8275 35.0869 22.8275C35.3283 22.8275 35.5698 22.7352 35.7544 22.552L39.5264 18.78C39.7959 18.5104 39.8773 18.1047 39.7299 17.7521C39.5832 17.3994 39.24 17.1695 38.8589 17.1695H35.9828C35.4869 7.72961 27.675 0.195312 18.1129 0.195312C8.23363 0.195312 0.195312 8.23354 0.195312 18.1129C0.195312 27.9912 8.23354 36.0295 18.1129 36.0295L18.1128 36.0288ZM35.0869 20.5505L33.5915 19.055H36.5827L35.0869 20.5505Z" fill="url(#paint0_linear_116646_4900)" stroke="url(#paint1_linear_116646_4900)" stroke-width="0.390625"/>
<defs>
<linearGradient id="paint0_linear_116646_4900" x1="21.828" y1="36.0295" x2="21.5229" y2="0.194397" gradientUnits="userSpaceOnUse">
<stop offset="0.9999" stop-color="#003B46"/>
</linearGradient>
<linearGradient id="paint1_linear_116646_4900" x1="21.828" y1="36.0295" x2="21.5229" y2="0.194397" gradientUnits="userSpaceOnUse">
<stop offset="0.9999" stop-color="#003B46"/>
</linearGradient>
</defs>
</svg>
