<svg width="28" height="24" viewBox="0 0 28 24" fill="none" xmlns="http://www.w3.org/2000/svg">
<path d="M14 0C13.8317 2.14277e-05 13.6651 0.0331763 13.5097 0.0975452C13.3544 0.161914 13.2135 0.256219 13.0952 0.375L0.258523 11.4918C0.178352 11.5505 0.113193 11.6271 0.0682899 11.7153C0.0233872 11.8036 -3.82798e-06 11.9011 4.6988e-10 12C4.69881e-10 12.1675 0.0670452 12.3281 0.186387 12.4466C0.305728 12.565 0.467589 12.6316 0.636364 12.6316H3.81818V22.7368C3.81818 23.4341 4.38836 24 5.09091 24H10.1818C10.8844 24 11.4545 23.4341 11.4545 22.7368V15.1579H16.5455V22.7368C16.5455 23.4341 17.1156 24 17.8182 24H22.9091C23.6116 24 24.1818 23.4341 24.1818 22.7368V12.6316H27.3636C27.5324 12.6316 27.6943 12.565 27.8136 12.4466C27.933 12.3281 28 12.1675 28 12C28 11.9011 27.9766 11.8036 27.9317 11.7153C27.8868 11.6271 27.8216 11.5505 27.7415 11.4918L14.9123 0.382401C14.9098 0.379924 14.9073 0.377457 14.9048 0.375C14.7865 0.256219 14.6456 0.161914 14.4903 0.0975452C14.3349 0.0331763 14.1683 2.14277e-05 14 0Z" fill="url(#paint0_linear_116646_425)"/>
<defs>
<linearGradient id="paint0_linear_116646_425" x1="15.2931" y1="24" x2="15.0995" y2="-0.000791092" gradientUnits="userSpaceOnUse">
<stop offset="0.9999" stop-color="#003B46"/>
</linearGradient>
</defs>
</svg>
