<svg width="19" height="14" viewBox="0 0 19 14" fill="none" xmlns="http://www.w3.org/2000/svg">
<path d="M17.4998 5.84357H2.84482L7.25565 1.43274C7.33525 1.35587 7.39873 1.26391 7.44241 1.16224C7.48608 1.06057 7.50907 0.951224 7.51003 0.840575C7.51099 0.729925 7.48991 0.620192 7.44801 0.517778C7.40611 0.415365 7.34423 0.322321 7.26598 0.244078C7.18774 0.165834 7.0947 0.103956 6.99228 0.0620553C6.88987 0.0201545 6.78014 -0.000930049 6.66949 3.14642e-05C6.55884 0.000992978 6.44949 0.0239815 6.34782 0.0676557C6.24615 0.11133 6.15419 0.174815 6.07732 0.254407L0.243989 6.08774C0.0877628 6.24401 0 6.45594 0 6.67691C0 6.89788 0.0877628 7.1098 0.243989 7.26607L6.07732 13.0994C6.23449 13.2512 6.44499 13.3352 6.66349 13.3333C6.88199 13.3314 7.091 13.2438 7.2455 13.0893C7.40001 12.9347 7.48765 12.7257 7.48955 12.5072C7.49145 12.2887 7.40745 12.0782 7.25565 11.9211L2.84482 7.51024H17.4998C17.7208 7.51024 17.9328 7.42244 18.0891 7.26616C18.2454 7.10988 18.3332 6.89792 18.3332 6.67691C18.3332 6.45589 18.2454 6.24393 18.0891 6.08765C17.9328 5.93137 17.7208 5.84357 17.4998 5.84357Z" fill="#1E222E"/>
</svg>
