<svg width="17" height="17" viewBox="0 0 17 17" fill="none" xmlns="http://www.w3.org/2000/svg">
<path d="M5.41732 15.4167C6.1537 15.4167 6.75065 14.8197 6.75065 14.0833C6.75065 13.347 6.1537 12.75 5.41732 12.75C4.68094 12.75 4.08398 13.347 4.08398 14.0833C4.08398 14.8197 4.68094 15.4167 5.41732 15.4167Z" stroke="#66A5AD" stroke-width="1.5" stroke-linecap="round" stroke-linejoin="round"/>
<path d="M13.4173 15.4167C14.1537 15.4167 14.7507 14.8197 14.7507 14.0833C14.7507 13.347 14.1537 12.75 13.4173 12.75C12.6809 12.75 12.084 13.347 12.084 14.0833C12.084 14.8197 12.6809 15.4167 13.4173 15.4167Z" stroke="#66A5AD" stroke-width="1.5" stroke-linecap="round" stroke-linejoin="round"/>
<path d="M3.86333 4.08333H15.4167L14.2967 9.67667C14.2357 9.9836 14.0687 10.2593 13.825 10.4555C13.5812 10.6518 13.2762 10.756 12.9633 10.75H5.91667C5.59112 10.7528 5.27582 10.6363 5.0302 10.4226C4.78459 10.209 4.62564 9.91279 4.58333 9.59L3.57 1.91C3.52798 1.58949 3.37095 1.29516 3.12813 1.08178C2.88532 0.868395 2.57325 0.750489 2.25 0.75H0.75" stroke="#66A5AD" stroke-width="1.5" stroke-linecap="round" stroke-linejoin="round"/>
</svg>
