<svg width="22" height="18" viewBox="0 0 22 18" fill="none" xmlns="http://www.w3.org/2000/svg">
<path fill-rule="evenodd" clip-rule="evenodd" d="M21.175 2.02855C20.3778 2.37489 19.5806 2.62228 18.6838 2.72123C19.5806 2.17699 20.2782 1.33588 20.5771 0.346339C19.7301 0.841108 18.7835 1.18744 17.8368 1.38535C17.0396 0.544243 15.8937 0 14.6481 0C12.2566 0 10.3135 1.9296 10.3135 4.30449C10.3135 4.65084 10.3633 4.99717 10.4131 5.29404C6.77599 5.09613 3.58729 3.4139 1.44488 0.791634C1.04629 1.43483 0.846997 2.17699 0.846997 2.96861C0.846997 4.45293 1.59435 5.7888 2.79011 6.58043C2.09258 6.58043 1.39506 6.38253 0.797173 6.03618V6.08566C0.797173 8.1637 2.29188 9.94486 4.28482 10.3407C3.93605 10.4396 3.53747 10.4891 3.13887 10.4891C2.83994 10.4891 2.59082 10.4396 2.3417 10.3902C2.88976 12.1218 4.48412 13.3588 6.42722 13.4082C4.93252 14.5462 3.08905 15.2389 1.04629 15.2389C0.697529 15.2389 0.348767 15.2389 0 15.1894C1.94312 16.4263 4.18517 17.119 6.67634 17.119C14.6979 17.119 19.0326 10.5386 19.0326 4.84874C19.0326 4.65084 19.0326 4.45293 19.0326 4.30449C19.8796 3.6613 20.6269 2.86966 21.175 2.02855Z" fill="white"/>
</svg>
